<svg xmlns="http://www.w3.org/2000/svg" version="1.1" xmlns:xlink="http://www.w3.org/1999/xlink" xmlns:svgjs="http://svgjs.com/svgjs" width="512" height="512" x="0" y="0" viewBox="0 0 682.667 682.667" style="enable-background:new 0 0 512 512" xml:space="preserve" class=""><g><defs><clipPath id="a" clipPathUnits="userSpaceOnUse"><path d="M0 512h512V0H0Z" fill="#000000" data-original="#000000"></path></clipPath></defs><g clip-path="url(#a)" transform="matrix(1.33333 0 0 -1.33333 0 682.667)"><path d="M0 0h-102.32a3.074 3.074 0 0 0-3.075 3.074v102.351l-1.024 3.389h-199.404a5.123 5.123 0 0 1-5.123-5.123v-376.083a5.123 5.123 0 0 1 5.123-5.123H-1.704a5.124 5.124 0 0 1 5.124 5.123V-1.024z" style="fill-opacity:1;fill-rule:nonzero;stroke:none" transform="translate(492.879 395.685)" fill="#fff3de" data-original="#fff3de" class=""></path><path d="m0 0 8.771-8.771v114.318a5.124 5.124 0 0 0 5.124 5.123h-47.068a5.123 5.123 0 0 1-5.123-5.123V0Z" style="fill-opacity:1;fill-rule:nonzero;stroke:none" transform="translate(220.229 393.83)" fill="#ffe5c2" data-original="#ffe5c2"></path><path d="M0 0v174.661l-3.42 1.025h-102.32a3.074 3.074 0 0 0-3.074 3.074v102.35l-1.025 3.39h-199.404a5.124 5.124 0 0 1-5.123-5.124V-96.706a5.124 5.124 0 0 1 5.123-5.124H-5.124A5.124 5.124 0 0 1 0-96.706V-35" style="stroke-width:15;stroke-linecap:round;stroke-linejoin:round;stroke-miterlimit:10;stroke-dasharray:none;stroke-opacity:1" transform="translate(496.299 220)" fill="none" stroke="#000000" stroke-width="15" stroke-linecap="round" stroke-linejoin="round" stroke-miterlimit="10" stroke-dasharray="none" stroke-opacity="" data-original="#000000" class=""></path><path d="M0 0v-106.765a3.074 3.074 0 0 1 3.074-3.074h106.765z" style="fill-opacity:1;fill-rule:nonzero;stroke:none" transform="translate(386.46 504.5)" fill="#fd9a01" data-original="#fd9a01" class=""></path><path d="M0 0v74.994l-31.771 31.771V0a3.073 3.073 0 0 1 3.074-3.074h31.77A3.073 3.073 0 0 0 0 0" style="fill-opacity:1;fill-rule:nonzero;stroke:none" transform="translate(418.231 397.735)" fill="#fb8801" data-original="#fb8801" class=""></path><path d="M0 0v-106.765a3.074 3.074 0 0 1 3.074-3.074h106.765z" style="stroke-width:15;stroke-linecap:round;stroke-linejoin:round;stroke-miterlimit:10;stroke-dasharray:none;stroke-opacity:1" transform="translate(386.46 504.5)" fill="none" stroke="#000000" stroke-width="15" stroke-linecap="round" stroke-linejoin="round" stroke-miterlimit="10" stroke-dasharray="none" stroke-opacity="" data-original="#000000" class=""></path><path d="M0 0v162.591a3.074 3.074 0 0 0 3.074 3.074h235.215a3.074 3.074 0 0 0 3.074-3.074V0a3.074 3.074 0 0 0-3.074-3.074H3.074A3.074 3.074 0 0 0 0 0" style="fill-opacity:1;fill-rule:nonzero;stroke:none" transform="translate(218.434 188.2)" fill="#fb8801" data-original="#fb8801" class=""></path><path d="M0 0h232.314l-62.665 84.505c-2.048 2.763-6.182 2.763-8.231 0l-35.199-47.467-50.275 67.796c-2.048 2.762-6.182 2.762-8.231 0L-3.074 9.376V3.074A3.074 3.074 0 0 1 0 0" style="fill-opacity:1;fill-rule:nonzero;stroke:none" transform="translate(221.508 185.125)" fill="#fed402" data-original="#fed402"></path><path d="M0 0h232.314l-62.665 84.505c-2.048 2.763-6.182 2.763-8.231 0l-35.199-47.467-50.275 67.796c-2.048 2.762-6.182 2.762-8.231 0L-3.074 9.376V3.074A3.074 3.074 0 0 1 0 0Z" style="stroke-width:15;stroke-linecap:round;stroke-linejoin:round;stroke-miterlimit:10;stroke-dasharray:none;stroke-opacity:1" transform="translate(221.508 185.125)" fill="none" stroke="#000000" stroke-width="15" stroke-linecap="round" stroke-linejoin="round" stroke-miterlimit="10" stroke-dasharray="none" stroke-opacity="" data-original="#000000" class=""></path><path d="M0 0h-73.492a3.074 3.074 0 0 1-3.074-3.074v-162.591a3.074 3.074 0 0 1 3.074-3.074h235.215a3.074 3.074 0 0 1 3.074 3.074V-3.074A3.074 3.074 0 0 1 161.723 0H35" style="stroke-width:15;stroke-linecap:round;stroke-linejoin:round;stroke-miterlimit:10;stroke-dasharray:none;stroke-opacity:1" transform="translate(295 353.865)" fill="none" stroke="#000000" stroke-width="15" stroke-linecap="round" stroke-linejoin="round" stroke-miterlimit="10" stroke-dasharray="none" stroke-opacity="" data-original="#000000" class=""></path><path d="M0 0c0-8.489-6.882-15.371-15.371-15.371S-30.742-8.489-30.742 0s6.882 15.371 15.371 15.371S0 8.489 0 0" style="fill-opacity:1;fill-rule:nonzero;stroke:none" transform="translate(431.617 311.22)" fill="#fed402" data-original="#fed402"></path><path d="M0 0c0-8.489-6.882-15.371-15.371-15.371S-30.742-8.489-30.742 0s6.882 15.371 15.371 15.371S0 8.489 0 0Z" style="stroke-width:15;stroke-linecap:round;stroke-linejoin:round;stroke-miterlimit:10;stroke-dasharray:none;stroke-opacity:1" transform="translate(431.617 311.22)" fill="none" stroke="#000000" stroke-width="15" stroke-linecap="round" stroke-linejoin="round" stroke-miterlimit="10" stroke-dasharray="none" stroke-opacity="" data-original="#000000" class=""></path><path d="M0 0v40.786L26.645 0v40.786" style="stroke-width:15;stroke-linecap:round;stroke-linejoin:round;stroke-miterlimit:10;stroke-dasharray:none;stroke-opacity:1" transform="translate(264.709 394.661)" fill="none" stroke="#000000" stroke-width="15" stroke-linecap="round" stroke-linejoin="round" stroke-miterlimit="10" stroke-dasharray="none" stroke-opacity="" data-original="#000000" class=""></path><path d="M0 0v40.786h16.397c5.659 0 10.247-4.588 10.247-10.248v-1.354c0-5.66-4.588-10.248-10.247-10.248H2.834" style="stroke-width:15;stroke-linecap:round;stroke-linejoin:round;stroke-miterlimit:10;stroke-dasharray:none;stroke-opacity:1" transform="translate(218.434 394.661)" fill="none" stroke="#000000" stroke-width="15" stroke-linecap="round" stroke-linejoin="round" stroke-miterlimit="10" stroke-dasharray="none" stroke-opacity="" data-original="#000000" class=""></path><path d="M0 0h-16.396c-5.661 0-10.248-4.588-10.248-10.248v-20.29c0-5.66 4.587-10.248 10.248-10.248h6.149C-4.588-40.786 0-36.198 0-30.538v9.417h-7.173" style="stroke-width:15;stroke-linecap:round;stroke-linejoin:round;stroke-miterlimit:10;stroke-dasharray:none;stroke-opacity:1" transform="translate(338.49 435.447)" fill="none" stroke="#000000" stroke-width="15" stroke-linecap="round" stroke-linejoin="round" stroke-miterlimit="10" stroke-dasharray="none" stroke-opacity="" data-original="#000000" class=""></path><path d="M0 0h43.827" style="stroke-width:15;stroke-linecap:round;stroke-linejoin:round;stroke-miterlimit:10;stroke-dasharray:none;stroke-opacity:1" transform="translate(218.434 155.068)" fill="none" stroke="#000000" stroke-width="15" stroke-linecap="round" stroke-linejoin="round" stroke-miterlimit="10" stroke-dasharray="none" stroke-opacity="" data-original="#000000" class=""></path><path d="M0 0h-102.321a3.074 3.074 0 0 0-3.074 3.074v102.35l-1.024 3.39h-199.404a5.123 5.123 0 0 1-5.124-5.124v-376.082a5.124 5.124 0 0 1 5.124-5.123H-1.704a5.123 5.123 0 0 1 5.123 5.123V-1.024Z" style="fill-opacity:1;fill-rule:nonzero;stroke:none" transform="translate(326.648 285.015)" fill="#d8ecfe" data-original="#d8ecfe"></path><path d="M0 0v376.082a5.124 5.124 0 0 0 5.124 5.124h-52.299a5.124 5.124 0 0 1-5.124-5.124V0a5.124 5.124 0 0 1 5.124-5.124H5.124A5.124 5.124 0 0 0 0 0" style="fill-opacity:1;fill-rule:nonzero;stroke:none" transform="translate(68 12.623)" fill="#c4e2ff" data-original="#c4e2ff"></path><path d="M0 0v216.991l-3.419 1.024H-105.74a3.074 3.074 0 0 0-3.074 3.074v102.35l-1.024 3.391h-199.404a5.124 5.124 0 0 1-5.124-5.124V-54.376a5.124 5.124 0 0 1 5.124-5.124H-5.124A5.124 5.124 0 0 1 0-54.376V-35" style="stroke-width:15;stroke-linecap:round;stroke-linejoin:round;stroke-miterlimit:10;stroke-dasharray:none;stroke-opacity:1" transform="translate(330.067 67)" fill="none" stroke="#000000" stroke-width="15" stroke-linecap="round" stroke-linejoin="round" stroke-miterlimit="10" stroke-dasharray="none" stroke-opacity="" data-original="#000000" class=""></path><path d="M0 0v-106.765a3.074 3.074 0 0 1 3.074-3.074h106.764z" style="fill-opacity:1;fill-rule:nonzero;stroke:none" transform="translate(220.229 393.83)" fill="#0593fc" data-original="#0593fc"></path><path d="M0 0v74.993l-31.771 31.772V0a3.074 3.074 0 0 1 3.074-3.074H3.074A3.074 3.074 0 0 0 0 0" style="fill-opacity:1;fill-rule:nonzero;stroke:none" transform="translate(252 287.065)" fill="#0182fc" data-original="#0182fc"></path><path d="M0 0v-106.765a3.074 3.074 0 0 1 3.074-3.074h106.764z" style="stroke-width:15;stroke-linecap:round;stroke-linejoin:round;stroke-miterlimit:10;stroke-dasharray:none;stroke-opacity:1" transform="translate(220.229 393.83)" fill="none" stroke="#000000" stroke-width="15" stroke-linecap="round" stroke-linejoin="round" stroke-miterlimit="10" stroke-dasharray="none" stroke-opacity="" data-original="#000000" class=""></path><path d="M0 0v-30.538c0-5.659-4.588-10.247-10.247-10.247h-6.15c-5.66 0-10.248 4.588-10.248 10.247v2.862" style="stroke-width:15;stroke-linecap:round;stroke-linejoin:round;stroke-miterlimit:10;stroke-dasharray:none;stroke-opacity:1" transform="translate(82.71 324.776)" fill="none" stroke="#000000" stroke-width="15" stroke-linecap="round" stroke-linejoin="round" stroke-miterlimit="10" stroke-dasharray="none" stroke-opacity="" data-original="#000000" class=""></path><path d="M0 0v40.785h16.397c5.66 0 10.248-4.588 10.248-10.247v-1.355c0-5.659-4.588-10.247-10.248-10.247H2.834" style="stroke-width:15;stroke-linecap:round;stroke-linejoin:round;stroke-miterlimit:10;stroke-dasharray:none;stroke-opacity:1" transform="translate(103.983 283.99)" fill="none" stroke="#000000" stroke-width="15" stroke-linecap="round" stroke-linejoin="round" stroke-miterlimit="10" stroke-dasharray="none" stroke-opacity="" data-original="#000000" class=""></path><path d="M0 0h-16.397c-5.66 0-10.248-4.588-10.248-10.247v-20.291c0-5.659 4.588-10.247 10.248-10.247h6.15C-4.588-40.785 0-36.197 0-30.538v9.417h-7.173" style="stroke-width:15;stroke-linecap:round;stroke-linejoin:round;stroke-miterlimit:10;stroke-dasharray:none;stroke-opacity:1" transform="translate(176.983 324.776)" fill="none" stroke="#000000" stroke-width="15" stroke-linecap="round" stroke-linejoin="round" stroke-miterlimit="10" stroke-dasharray="none" stroke-opacity="" data-original="#000000" class=""></path><path d="M0 0v162.591a3.074 3.074 0 0 0 3.074 3.074H238.29a3.074 3.074 0 0 0 3.074-3.074V0a3.074 3.074 0 0 0-3.074-3.074H3.074A3.074 3.074 0 0 0 0 0" style="fill-opacity:1;fill-rule:nonzero;stroke:none" transform="translate(52.203 77.53)" fill="#0593fc" data-original="#0593fc"></path><path d="M0 0v162.591a3.074 3.074 0 0 0 3.074 3.074h-41.797a3.074 3.074 0 0 1-3.074-3.074V0a3.074 3.074 0 0 1 3.074-3.074H3.074A3.074 3.074 0 0 0 0 0" style="fill-opacity:1;fill-rule:nonzero;stroke:none" transform="translate(94 77.53)" fill="#0182fc" data-original="#0182fc"></path><path d="M0 0h232.314l-62.665 84.505c-2.048 2.762-6.182 2.762-8.231 0l-35.199-47.467-50.275 67.795c-2.048 2.763-6.182 2.763-8.231 0L-3.074 9.375V3.074A3.074 3.074 0 0 1 0 0" style="fill-opacity:1;fill-rule:nonzero;stroke:none" transform="translate(55.277 74.455)" fill="#46cc8d" data-original="#46cc8d"></path><path d="M0 0v6.301l54.004 72.826-16.783 22.632c-2.048 2.763-6.182 2.763-8.231 0L-41.797 6.301V0a3.074 3.074 0 0 1 3.074-3.074H3.074A3.074 3.074 0 0 0 0 0" style="fill-opacity:1;fill-rule:nonzero;stroke:none" transform="translate(94 77.53)" fill="#08b865" data-original="#08b865"></path><path d="M0 0h232.314l-62.665 84.505c-2.048 2.762-6.182 2.762-8.231 0l-35.199-47.467-50.275 67.795c-2.048 2.763-6.182 2.763-8.231 0L-3.074 9.375V3.074A3.074 3.074 0 0 1 0 0Z" style="stroke-width:15;stroke-linecap:round;stroke-linejoin:round;stroke-miterlimit:10;stroke-dasharray:none;stroke-opacity:1" transform="translate(55.277 74.455)" fill="none" stroke="#000000" stroke-width="15" stroke-linecap="round" stroke-linejoin="round" stroke-miterlimit="10" stroke-dasharray="none" stroke-opacity="" data-original="#000000" class=""></path><path d="M0 0v162.591a3.074 3.074 0 0 0 3.074 3.074H238.29a3.074 3.074 0 0 0 3.074-3.074V0a3.074 3.074 0 0 0-3.074-3.074H3.074A3.074 3.074 0 0 0 0 0Z" style="stroke-width:15;stroke-linecap:round;stroke-linejoin:round;stroke-miterlimit:10;stroke-dasharray:none;stroke-opacity:1" transform="translate(52.203 77.53)" fill="none" stroke="#000000" stroke-width="15" stroke-linecap="round" stroke-linejoin="round" stroke-miterlimit="10" stroke-dasharray="none" stroke-opacity="" data-original="#000000" class=""></path><path d="M0 0c0-8.489-6.882-15.371-15.371-15.371-8.488 0-15.37 6.882-15.37 15.371s6.882 15.371 15.37 15.371C-6.882 15.371 0 8.489 0 0" style="fill-opacity:1;fill-rule:nonzero;stroke:none" transform="translate(265.386 200.55)" fill="#ffffff" data-original="#ffffff"></path><path d="M0 0c0-8.489-6.882-15.371-15.371-15.371-8.488 0-15.37 6.882-15.37 15.371s6.882 15.371 15.37 15.371C-6.882 15.371 0 8.489 0 0Z" style="stroke-width:15;stroke-linecap:round;stroke-linejoin:round;stroke-miterlimit:10;stroke-dasharray:none;stroke-opacity:1" transform="translate(265.386 200.55)" fill="none" stroke="#000000" stroke-width="15" stroke-linecap="round" stroke-linejoin="round" stroke-miterlimit="10" stroke-dasharray="none" stroke-opacity="" data-original="#000000" class=""></path><path d="M0 0h43.827" style="stroke-width:15;stroke-linecap:round;stroke-linejoin:round;stroke-miterlimit:10;stroke-dasharray:none;stroke-opacity:1" transform="translate(52.203 44.398)" fill="none" stroke="#000000" stroke-width="15" stroke-linecap="round" stroke-linejoin="round" stroke-miterlimit="10" stroke-dasharray="none" stroke-opacity="" data-original="#000000" class=""></path></g></g></svg>